<?xml version="1.0" encoding="iso-8859-1"?>
<!-- Generator: Adobe Illustrator 16.0.0, SVG Export Plug-In . SVG Version: 6.00 Build 0)  -->
<!DOCTYPE svg PUBLIC "-//W3C//DTD SVG 1.1//EN" "http://www.w3.org/Graphics/SVG/1.1/DTD/svg11.dtd">
<svg version="1.1" id="Layer_1" xmlns="http://www.w3.org/2000/svg" xmlns:xlink="http://www.w3.org/1999/xlink" x="0px" y="0px"
	 width="64.152px" height="113.238px" viewBox="0 0 64.152 113.238" style="enable-background:new 0 0 64.152 113.238;"
	 xml:space="preserve">
<g>
	<path style="fill:#FFFFFF;" d="M26.73,113.238v-12.757c-7.939-0.973-14.378-3.949-19.318-8.931C2.47,86.569,0,79.826,0,71.32
		v-3.037h13v3.037c0,4.942,1.234,8.87,3.706,11.786c2.47,2.916,5.811,4.78,10.023,5.589V60.507
		c-5.023-1.215-9.376-2.794-13.061-4.738c-3.687-1.944-6.521-4.454-8.505-7.533C3.178,45.158,2.187,41.23,2.187,36.45
		c0-6.804,2.227-12.291,6.683-16.463c4.454-4.171,10.407-6.622,17.86-7.351V0h12.029v13c6.965,1.054,12.655,3.787,17.071,8.201
		c4.414,4.416,6.622,10.47,6.622,18.164v4.374h-13v-4.374c0-4.131-0.953-7.37-2.855-9.72c-1.904-2.349-4.516-3.968-7.836-4.86V51.03
		c5.021,1.215,9.435,2.794,13.243,4.739c3.807,1.944,6.783,4.477,8.931,7.594c2.145,3.119,3.22,7.108,3.22,11.968
		c0,6.804-2.269,12.454-6.804,16.949c-4.537,4.496-10.734,7.229-18.589,8.202v12.757H26.73z M15.188,36.085
		c0,3.241,0.972,5.752,2.916,7.533c1.944,1.782,4.818,3.24,8.626,4.374V24.3C19.034,25.515,15.188,29.445,15.188,36.085z
		 M51.152,75.573c0-3.32-1.075-5.872-3.22-7.654c-2.147-1.781-5.206-3.239-9.173-4.374v25.272c4.131-0.809,7.229-2.388,9.294-4.738
		C50.119,81.729,51.152,78.896,51.152,75.573z"/>
</g>
</svg>
