<?xml version="1.0" encoding="iso-8859-1"?>
<!-- Generator: Adobe Illustrator 16.0.0, SVG Export Plug-In . SVG Version: 6.00 Build 0)  -->
<!DOCTYPE svg PUBLIC "-//W3C//DTD SVG 1.1//EN" "http://www.w3.org/Graphics/SVG/1.1/DTD/svg11.dtd">
<svg version="1.1" id="Layer_1" xmlns="http://www.w3.org/2000/svg" xmlns:xlink="http://www.w3.org/1999/xlink" x="0px" y="0px"
	 width="284.21px" height="318.356px" viewBox="253.897 128.827 284.21 318.356"
	 style="enable-background:new 253.897 128.827 284.21 318.356;" xml:space="preserve">
<path style="fill:#FFFFFF;" d="M326.896,237.458c19.703-11.415,39.569-22.83,59.272-34.232c5.898-3.504,13.24-3.504,19.139,0
	l29.259,16.739c1.221,0.742,1.608,2.334,0.866,3.555c-0.216,0.354-0.513,0.65-0.866,0.866l-71.579,41.227
	c-1.834,1.047-2.966,2.998-2.964,5.111v34.596c-0.036,2.096,1.104,4.034,2.951,5.022l30,17.305c1.739,1.106,3.962,1.106,5.701,0
	l123.693-71.239c20.983-12.144,20.983-47.116,0-59.26l-111.174-64.044c-9.453-5.702-21.287-5.702-30.741,0l-111.16,64.044
	c-9.597,5.44-15.49,15.654-15.396,26.685c0,42.884,0.176,85.593,0,128.29c-0.081,11.044,5.838,21.261,15.458,26.685l111.161,64.232
	c9.502,5.525,21.238,5.525,30.74,0l111.174-64.232c9.609-5.41,15.474-15.659,15.27-26.685v-55.769l-132.332,76.602
	c-5.898,3.504-13.24,3.504-19.138,0l-59.021-34.232c-5.986-3.348-9.658-9.705-9.569-16.563v-68.326
	c-0.012-6.726,3.563-12.949,9.38-16.325L326.896,237.458z"/>
</svg>
