<?xml version="1.0" encoding="UTF-8"?>
<svg width="1200pt" height="1200pt" version="1.1" viewBox="0 0 1200 1200" xmlns="http://www.w3.org/2000/svg">
 <path d="m600 1140c-26.391 0-48-21.609-48-48v-312h-36c-224.39 0-408-183.61-408-408v-84c0-26.391 21.609-48 48-48h84c128.39 0 243.61 60 319.22 153.61 34.781-189.61 201.56-333.61 400.78-333.61h84c26.391 0 48 21.609 48 48v84c0 224.39-183.61 408-408 408h-36v492c0 26.391-21.609 48-48 48zm-396-804v36c0 171.61 140.39 312 312 312h36v-36c0-171.61-140.39-312-312-312zm444 168h36c171.61 0 312-140.39 312-312v-36h-36c-171.61 0-312 140.39-312 312z" fill="#fff"/>
</svg>
