<svg id="Layer_1" enable-background="new 0 0 512 512" height="512" viewBox="0 0 512 512" width="512" xmlns="http://www.w3.org/2000/svg"><path clip-rule="evenodd" d="m153.349 255.994c0-56.578 46.02-102.617 102.659-102.617 56.579 0 102.598 46.038 102.598 102.617 0 56.591-46.019 102.61-102.598 102.61-56.64 0-102.659-46.019-102.659-102.61zm-124.815-9.79c-3.54 6.403-3.54 13.177 0 19.586 45.959 82.53 133.115 133.799 227.474 133.799 94.297 0 181.454-51.268 227.413-133.799 3.601-6.409 3.601-13.183 0-19.586-45.959-82.53-133.115-133.793-227.413-133.793-94.359 0-181.515 51.263-227.474 133.793zm227.474-59.197c-38.085 0-69.03 30.944-69.03 68.987 0 38.042 30.944 68.987 69.03 68.987 38.024 0 68.968-30.944 68.968-68.987s-30.944-68.987-68.968-68.987z" fill-rule="evenodd"/></svg>